<?xml version="1.0" encoding="UTF-8" standalone="no"?>
<!-- Created with Inkscape (http://www.inkscape.org/) -->

<svg
   width="48"
   height="48"
   viewBox="0 0 48 48"
   version="1.1"
   id="svg1"
   xmlns="http://www.w3.org/2000/svg"
   xmlns:svg="http://www.w3.org/2000/svg">
  <defs
     id="defs1">
    <linearGradient
       id="SVGID_1_"
       gradientUnits="userSpaceOnUse"
       x1="47.489101"
       y1="11.504"
       x2="51.0205"
       y2="45.102501">
      <stop
         offset="0.1705"
         style="stop-color:#01AB46"
         id="stop1" />
      <stop
         offset="0.3448"
         style="stop-color:#089E42"
         id="stop2" />
      <stop
         offset="0.6711"
         style="stop-color:#1A7A37"
         id="stop3" />
      <stop
         offset="1"
         style="stop-color:#2F502A"
         id="stop4" />
    </linearGradient>
  </defs>
  <g
     id="g15"
     transform="matrix(0.38803117,0,0,0.38803117,0.16107524,-1.1784585)">
    <path
       style="fill:url(#SVGID_1_)"
       d="m 35.84,48.65 c 0,0 5.84,-8.38 5.42,-11.61 -0.42,-3.24 -1.55,-3.94 -4.79,-5.07 -3.24,-1.13 -5.14,-2.89 -5.14,-2.89 0,0 -2.35,-11.03 -2.11,-12.39 0.28,-1.62 6.12,-12.53 19.99,-12.53 13.37,0 18.86,11.22 18.16,19.85 -0.63,7.81 -3.52,10 -5.56,16.47 -2.04,6.48 -3.03,10.35 -3.03,10.35 L 46.74,53.29 36.67,51.11 Z"
       id="path4" />
    <path
       style="fill:#ff5d10"
       d="m 53.25,96.51 c 0,0 0.75,7.64 -0.02,8.57 -0.78,0.93 -12.44,3.63 -13.76,4.62 -1.43,1.07 -0.82,3.47 2.22,6.24 3.04,2.77 5.59,3.25 7.34,2.53 2.06,-0.84 5.63,-3.57 7.23,-4.79 1.28,-0.98 3.2,-3.06 3.46,-4.73 0.27,-1.67 -0.56,-11.48 -0.56,-11.48 z"
       id="path5" />
    <path
       style="fill:#ff5d10"
       d="m 68.45,99.19 c 0,0 1.1,8.92 0.56,10 -1.41,2.82 -9.47,9.16 -10,11.26 -0.42,1.69 3.8,5.07 8.02,5.16 5.64,0.13 9.17,-2.1 9.57,-3.33 0.56,-1.74 -1.55,-11.97 -1.83,-12.53 -0.28,-0.56 0.14,-15.06 0.14,-15.06 z"
       id="path6" />
    <path
       style="fill:#5e6367"
       d="m 98.66,54.49 c 0,0 4.8,-0.94 4.82,-4.2 0.01,-3.26 -1.74,-1.84 -1.76,-4.21 -0.02,-2.37 4.24,-2.93 7.04,-0.94 2.21,1.57 7.26,6.68 6.98,17.29 -0.38,14.41 -7.92,24.95 -19.79,31.47 -9.68,5.31 -23.96,4.68 -23.96,4.68 z"
       id="path7" />
    <path
       style="fill:#b0b0b1"
       d="m 85.67,55.69 c 2.35,-0.28 12.66,-3.54 16.33,-2.6 4.43,1.13 8.85,4.25 7.95,14.15 C 108.79,80.09 99.66,87.92 95.73,90.07 88.7,93.91 81.94,94 81.94,94 c 0,0 1.39,-38.03 3.73,-38.31 z"
       id="path8" />
    <path
       style="fill:#ffbf18"
       d="m 7.12,25.07 c 0,1.2 7.46,4.72 14.5,5.56 7.04,0.84 11.4,-0.28 11.4,-0.28 0,0 -1.2,-3.03 -1.2,-5.28 0,-2.25 1.16,-7.9 -0.63,-9.22 -1.62,-1.2 -2.96,1.27 -3.94,1.97 -0.99,0.7 -3.8,2.67 -8.17,2.82 -4.37,0.15 -8.17,-0.56 -9.71,0.28 -1.54,0.84 -2.25,2.88 -2.25,4.15 z"
       id="path9" />
    <path
       style="fill:#2d2b33"
       d="m 50.2,20.77 c -0.42,1.75 -1.61,3.12 -3.94,2.75 -2.18,-0.35 -3.24,-2.6 -2.6,-4.79 0.5,-1.73 1.79,-2.9 3.97,-2.53 2.5,0.42 2.97,2.88 2.57,4.57 z"
       id="path10" />
    <path
       style="fill:#73df86"
       d="m 50.92,25.57 c 2.47,-0.78 4.3,-0.79 4.04,-2.47 -0.3,-1.93 -3.51,-1.38 -5.55,-0.3 -2.17,1.15 -4.99,3.11 -3.74,4.7 1.33,1.69 3.83,-1.48 5.25,-1.93 z"
       id="path11" />
    <path
       style="fill:#ffffff"
       d="m 33.16,51.6 c 0,0 2.16,9.43 12.95,7.84 7.71,-1.14 13.42,-4.97 13.42,-4.97 l 0.09,-6.29 c 0,0 -5.12,3 -11.26,2.91 C 41.98,51 36.44,47.71 36.44,47.71 Z"
       id="path12" />
    <path
       style="fill:#84574e"
       d="M 26.03,69.11 C 25.28,89.56 40.7,99.28 65.17,99.7 92.29,100.17 102.78,84.26 104.4,74.27 106.09,63.82 99.33,61.6 99.33,61.6 c 0,0 6.76,-2.82 3.73,-9.5 -1.41,-0.28 -8.35,1.57 -21.54,0.21 -13.1,-1.35 -22.08,0.94 -22.08,0.94 0,0 -3.28,3.57 -12.67,3.1 -11.25,-0.56 -13.42,-4.97 -13.42,-4.97 0,0 -6.85,5.01 -7.32,17.73 z"
       id="path13" />
    <path
       style="fill:#b79277"
       d="m 52.03,73.14 c 2.28,7.9 10.42,12.67 22.52,12.11 10.98,-0.51 18.96,-8.17 20.27,-14.92 1.43,-7.34 -1.55,-10.14 -1.55,-10.14 0,0 6.34,-2.3 6.34,-6.76 -3.57,-2.16 -14.92,-3.66 -27.5,-4.13 -8.16,-0.3 -12.76,2.72 -12.76,2.72 0,0 -11.55,6.48 -7.32,21.12 z"
       id="path14" />
    <path
       style="fill:#b0b0b1"
       d="M 76.05,54.84"
       id="path15" />
  </g>
</svg>
